<svg width="154" height="133" viewBox="0 0 154 133" fill="none" xmlns="http://www.w3.org/2000/svg">
<path fill-rule="evenodd" clip-rule="evenodd" d="M130.985 130.299C131.413 130.72 131.424 131.413 131.001 131.84C130.579 132.268 129.893 132.257 129.476 131.824L126.824 129.065C126.44 128.665 126.449 128.026 126.839 127.632C127.229 127.237 127.861 127.227 128.257 127.616L130.985 130.299ZM7.84223 107.369C7.29357 107.608 6.6564 107.353 6.42749 106.795C6.1986 106.237 6.46999 105.6 7.02516 105.376L10.5611 103.953C11.0733 103.746 11.6532 104 11.8644 104.515C12.0755 105.03 11.8427 105.623 11.3366 105.844L7.84223 107.369ZM146.975 105.376C147.53 105.6 147.801 106.237 147.573 106.795C147.344 107.353 146.706 107.608 146.158 107.369L142.663 105.844C142.157 105.623 141.924 105.03 142.136 104.515C142.347 104 142.927 103.746 143.439 103.953L146.975 105.376ZM1.72435 78.3131C1.12468 78.3216 0.630986 77.8368 0.630986 77.2303C0.630986 76.6239 1.12467 76.1391 1.72432 76.1476L5.52015 76.2011C6.07447 76.2089 6.51685 76.6697 6.51685 77.2303C6.51685 77.791 6.07447 78.2518 5.52015 78.2596L1.72435 78.3131ZM153.369 77.2304C153.369 77.8368 152.875 78.3216 152.276 78.3131L148.48 78.2596C147.926 78.2518 147.483 77.791 147.483 77.2304C147.483 76.6697 147.926 76.2089 148.48 76.2011L152.276 76.1476C152.875 76.1391 153.369 76.6239 153.369 77.2304ZM7.02517 49.0847C6.46999 48.8612 6.1986 48.2239 6.4275 47.6657C6.65641 47.1075 7.29357 46.8527 7.84223 47.0921L11.3366 48.617C11.8427 48.8378 12.0755 49.4309 11.8644 49.9458C11.6532 50.4607 11.0732 50.7143 10.5611 50.5081L7.02517 49.0847ZM146.158 47.0921C146.706 46.8527 147.344 47.1075 147.573 47.6657C147.801 48.2239 147.53 48.8612 146.975 49.0847L143.439 50.5081C142.927 50.7143 142.347 50.4607 142.136 49.9458C141.924 49.4309 142.157 48.8378 142.663 48.617L146.158 47.0921ZM129.476 22.6366C129.893 22.2033 130.579 22.193 131.001 22.6203C131.424 23.0476 131.413 23.7409 130.985 24.1621L128.257 26.8443C127.861 27.2333 127.229 27.2237 126.839 26.8292C126.449 26.4346 126.44 25.7955 126.824 25.3955L129.476 22.6366ZM23.0151 24.1621C22.5866 23.7409 22.5764 23.0476 22.9989 22.6203C23.4215 22.193 24.107 22.2034 24.5236 22.6366L27.1759 25.3955C27.5605 25.7955 27.551 26.4346 27.1609 26.8292C26.7707 27.2237 26.1387 27.2333 25.7431 26.8443L23.0151 24.1621ZM47.1979 7.29266C46.9611 6.73782 47.2131 6.09348 47.765 5.862C48.317 5.63051 48.9472 5.90494 49.1682 6.46639L50.5758 10.0423C50.7796 10.5602 50.5289 11.1466 50.0197 11.3602C49.5106 11.5737 48.9241 11.3383 48.7057 10.8265L47.1979 7.29266ZM104.832 6.46638C105.053 5.90494 105.683 5.63051 106.235 5.862C106.787 6.09349 107.039 6.73783 106.802 7.29267L105.294 10.8265C105.076 11.3383 104.489 11.5737 103.98 11.3602C103.471 11.1466 103.22 10.5601 103.424 10.0422L104.832 6.46638ZM77 0.000100135C77.5997 0.000100188 78.0791 0.499353 78.0707 1.10578L78.0178 4.94441C78.01 5.50498 77.5544 5.95235 77 5.95235C76.4456 5.95235 75.99 5.50497 75.9822 4.94439L75.9293 1.1058C75.9209 0.499368 76.4003 0.000100083 77 0.000100135Z" fill="#0063A8"/>
</svg>
