<svg width="221" height="50" viewBox="0 0 221 50" fill="none" xmlns="http://www.w3.org/2000/svg">
<g clip-path="url(#clip0_16037_503)">
<path d="M83.2307 23.751C86.2668 19.2628 87.1299 15.3838 85.7388 13.9927C85.3022 13.5662 84.6421 13.3428 83.779 13.3428C81.8801 13.3428 79.0775 14.409 75.9805 16.5008C77.2701 17.4959 78.5597 18.623 79.829 19.8923C81.0983 21.1616 82.2355 22.4512 83.2205 23.7408L83.2307 23.751Z" fill="white"/>
<path d="M69.646 19.9023C70.9152 18.633 72.2049 17.4958 73.4945 16.5108C70.3974 14.419 67.5948 13.3528 65.6959 13.3528C64.8429 13.3528 64.1728 13.566 63.7361 14.0027C62.345 15.3938 63.2081 19.2626 66.2442 23.761C67.2394 22.4714 68.3767 21.1818 69.6358 19.9125L69.646 19.9023Z" fill="white"/>
<path d="M82.3354 25C81.3403 23.6698 80.1624 22.2989 78.8017 20.9383C77.441 19.5776 76.0702 18.3997 74.74 17.4045C73.4098 18.3997 72.0389 19.5776 70.6782 20.9383C69.3176 22.2989 68.1397 23.6698 67.1445 25C68.1397 26.3302 69.3176 27.7011 70.6782 29.0617C72.0389 30.4224 73.4098 31.6003 74.74 32.5954C76.0702 31.6003 77.441 30.4224 78.8017 29.0617C80.1624 27.7011 81.3403 26.3302 82.3354 25Z" fill="white"/>
<path d="M66.256 26.249C63.2198 30.7372 62.3567 34.6162 63.7478 36.0073C65.139 37.3985 69.0078 36.5354 73.5062 33.4891C72.2166 32.4939 70.927 31.3567 69.6577 30.0975C68.3884 28.8282 67.2511 27.5386 66.2661 26.249H66.256Z" fill="white"/>
<path d="M52.0269 0H12.2422C5.33723 0 -0.257812 5.59505 -0.257812 12.5V37.5C-0.257812 44.405 5.33723 50 12.2422 50H87.2422C94.1471 50 99.7422 44.405 99.7422 37.5V0H52.0269ZM49.7422 48.5378H12.2422C6.15974 48.5378 1.20441 43.5825 1.20441 37.5V12.5C1.20441 6.41755 6.15974 1.46223 12.2422 1.46223H49.7422V48.5378ZM86.7751 37.0329C86.0541 37.7539 85.0184 38.0991 83.7897 38.0991C81.3628 38.0991 78.1236 36.7689 74.7422 34.3928C71.3608 36.7689 68.1216 38.0991 65.6947 38.0991C64.4558 38.0991 63.4302 37.7539 62.7093 37.0329C60.5667 34.8903 61.7548 30.1076 65.3393 25C61.7548 19.8924 60.5667 15.1097 62.7093 12.9671C64.8519 10.8245 69.6346 12.0126 74.7422 15.5971C79.8498 12.0126 84.6325 10.8245 86.7751 12.9671C88.9177 15.1097 87.7296 19.8924 84.1451 25C87.7296 30.1076 88.9177 34.8903 86.7751 37.0329Z" fill="white"/>
<path d="M79.8407 30.0975C78.5714 31.3668 77.2818 32.5041 75.9922 33.4891C80.4804 36.5252 84.3594 37.3883 85.7505 36.0073C87.1417 34.6162 86.2785 30.7474 83.2424 26.249C82.2473 27.5386 81.11 28.8282 79.8508 30.0975H79.8407Z" fill="white"/>
<path d="M10.2926 15.2113C8.95222 16.8867 8.35312 19.1715 8.76945 21.0297C9.84581 25.8429 14.3137 26.6146 17.5936 27.0411C20.1829 27.3762 22.6606 27.8534 22.5997 30.1585C22.5286 32.5549 19.8275 33.1438 18.0505 33.1438C13.4303 33.1438 13.278 29.732 13.278 29.732H8.3125C8.38358 31.0114 8.76945 33.0728 10.3535 34.8396C12.0798 36.7791 14.6793 37.7539 18.0607 37.7539C20.6602 37.7539 23.0261 36.9111 24.7118 35.4083V37.4696H29.3421V31.5699L30.977 29.7726L35.6582 37.4696H41.0501L34.2365 26.2084L41.0501 18.745H35.0489L29.3421 25.0001V12.5001H24.7118V15.526C24.5595 15.3331 24.397 15.1402 24.2244 14.9472C22.5387 13.1601 20.1119 12.2563 17.0046 12.2563C13.4201 12.2563 11.3791 13.8607 10.2926 15.2113ZM17.0859 16.5923C19.1675 16.5923 21.2491 17.0594 22.0412 19.9533H24.7016V24.3806C21.3811 21.6491 14.1716 23.3652 13.3998 19.9635C12.9937 18.1763 14.7707 16.5923 17.0859 16.5923Z" fill="white"/>
<path d="M111.538 34.3421C111.852 34.4437 112.208 34.4944 112.624 34.4944C113.142 34.4944 113.558 34.3421 113.873 34.0273C114.188 33.7125 114.391 33.2962 114.493 32.8393L107.902 18.8872H112.289L116.513 28.8994L120.22 18.8872H124.393L118.453 32.6362C117.671 34.4538 116.869 35.8043 115.985 36.6573C115.102 37.5407 114.147 37.9774 113.081 37.9774C112.716 37.9774 112.431 37.9774 112.198 37.9266C111.934 37.8961 111.731 37.8454 111.548 37.7946L111.05 37.6423C110.918 37.5915 110.786 37.5407 110.664 37.5103V33.9867C110.898 34.139 111.182 34.271 111.517 34.3523L111.538 34.3421Z" fill="white"/>
<path d="M131.543 32.2707C131.279 32.3519 130.995 32.4027 130.69 32.4737C130.375 32.5245 130.04 32.5753 129.705 32.6058C129.37 32.6565 129.035 32.6565 128.72 32.6565C127.918 32.6565 127.238 32.5753 126.618 32.4534C126.019 32.3011 125.501 32.0879 125.085 31.7833C124.669 31.4685 124.354 31.0521 124.151 30.5343C123.948 30.0367 123.836 29.4173 123.836 28.6963V23.7207H127.41V27.9957C127.41 28.3815 127.461 28.7268 127.563 28.9502C127.644 29.2142 127.796 29.4173 127.999 29.5696C128.202 29.7219 128.436 29.8336 128.751 29.8844C129.065 29.9352 129.421 29.9656 129.837 29.9656C130.457 29.9656 130.924 29.9149 131.289 29.8133C131.655 29.6813 131.939 29.5493 132.142 29.4274V23.7207H135.717V37.5205H132.142V32.0777C131.99 32.1285 131.777 32.2097 131.523 32.2808L131.543 32.2707Z" fill="white"/>
<path d="M149.588 35.7943C149.619 36.0583 149.69 36.2918 149.771 36.4137C149.852 36.5965 149.923 36.698 150.035 36.7793C150.137 36.8605 150.218 36.9113 150.35 36.9316V37.5002H146.38L146.176 36.8503C146.075 36.5863 146.044 36.2817 146.044 35.8857L145.242 36.6879C144.958 36.9214 144.674 37.1245 144.339 37.3073C144.003 37.4901 143.638 37.6424 143.201 37.7439C142.765 37.8455 142.247 37.8962 141.648 37.8962C141.049 37.8962 140.46 37.815 139.932 37.6322C139.414 37.4494 138.977 37.1651 138.581 36.83C138.215 36.4645 137.911 36.0278 137.698 35.4795C137.495 34.9616 137.383 34.3422 137.383 33.6416C137.383 33.0729 137.464 32.555 137.647 32.0575C137.83 31.5599 138.083 31.1537 138.398 30.7882C138.733 30.4226 139.129 30.118 139.586 29.8845C140.053 29.6204 140.571 29.4681 141.17 29.3869L144.674 28.869C144.806 28.8386 144.938 28.8386 145.09 28.7878C145.242 28.7573 145.374 28.7065 145.506 28.605C145.638 28.5238 145.74 28.4222 145.821 28.2902C145.902 28.1379 145.953 27.9551 145.953 27.7216C145.953 27.488 145.902 27.2849 145.852 27.1022C145.77 26.8991 145.648 26.7366 145.486 26.6046C145.303 26.4523 145.1 26.3406 144.816 26.2695C144.531 26.1883 144.166 26.168 143.75 26.168C143.252 26.168 142.897 26.2187 142.612 26.3C142.298 26.4015 142.064 26.564 141.912 26.7163C141.729 26.8991 141.597 27.1022 141.526 27.3154L141.373 28.0668H137.799C137.799 27.9145 137.83 27.681 137.88 27.3662C137.931 27.0819 138.033 26.7468 138.195 26.3812C138.327 26.0461 138.561 25.6806 138.815 25.315C139.079 24.9494 139.414 24.6143 139.881 24.2996C140.297 24.0152 140.845 23.7512 141.465 23.5684C142.084 23.3857 142.815 23.2841 143.699 23.2537C144.917 23.2537 145.933 23.3857 146.705 23.6192C147.456 23.8832 148.055 24.2183 148.492 24.6042C148.908 25.0205 149.192 25.4572 149.345 25.9547C149.477 26.4523 149.548 26.9397 149.548 27.4373V34.7484C149.548 35.1647 149.578 35.4998 149.629 35.7638L149.588 35.7943ZM145.283 31.0725C145.049 31.1741 144.765 31.2756 144.399 31.3365L143.445 31.5193C143.029 31.6005 142.663 31.6716 142.358 31.7833C142.044 31.8849 141.79 32.0169 141.577 32.1692C141.373 32.352 141.211 32.555 141.109 32.7886C141.008 33.0221 140.957 33.3065 140.957 33.672C140.957 33.9563 141.008 34.2204 141.089 34.4234C141.191 34.657 141.323 34.8093 141.505 34.9718C141.658 35.1038 141.841 35.2358 142.054 35.2866C142.287 35.3678 142.521 35.3881 142.785 35.3881C142.917 35.3881 143.1 35.3576 143.303 35.3373C143.506 35.3069 143.719 35.2561 143.973 35.185C144.207 35.0835 144.44 34.9819 144.674 34.8195C144.907 34.6875 145.11 34.4844 145.293 34.2508C145.496 34.0173 145.659 33.7329 145.76 33.3674C145.862 33.0323 145.943 32.6363 145.943 32.1793V30.778C145.74 30.91 145.506 31.0116 145.293 31.0928L145.283 31.0725Z" fill="white"/>
<path d="M159.599 27.6301C159.498 27.3458 159.335 27.1122 159.163 26.9294C158.959 26.7264 158.726 26.5944 158.462 26.4928C158.178 26.4116 157.842 26.3608 157.446 26.3608C156.847 26.3608 156.38 26.4928 156.025 26.7771C155.659 27.0615 155.375 27.3965 155.192 27.8129C154.989 28.2495 154.877 28.7166 154.806 29.2142C154.756 29.7117 154.705 30.1687 154.705 30.6155C154.705 31.0623 154.735 31.5497 154.786 32.0371C154.837 32.555 154.938 32.9916 155.152 33.4079C155.334 33.8242 155.588 34.1898 155.984 34.4437C156.35 34.728 156.837 34.86 157.467 34.86C157.883 34.86 158.249 34.7788 158.553 34.596C158.838 34.4437 159.102 34.2304 159.305 33.9969C159.508 33.7329 159.67 33.479 159.772 33.1947C159.853 32.9307 159.904 32.6768 159.904 32.4433H163.641C163.641 32.6768 163.61 32.9611 163.539 33.3267C163.438 33.7125 163.305 34.0781 163.123 34.4944C162.94 34.8803 162.686 35.2966 162.392 35.713C162.057 36.1293 161.691 36.4948 161.224 36.7995C160.757 37.1346 160.239 37.3986 159.619 37.6017C159 37.8047 158.269 37.9164 157.467 37.9164C156.431 37.9164 155.497 37.7641 154.695 37.4493C153.892 37.1143 153.212 36.6472 152.674 36.0277C152.126 35.4083 151.709 34.6569 151.425 33.7227C151.141 32.819 150.988 31.7731 150.988 30.6155C150.988 29.4579 151.141 28.3815 151.455 27.4778C151.77 26.5944 152.207 25.8226 152.775 25.1931C153.344 24.5736 154.024 24.1065 154.827 23.7918C155.609 23.4567 156.512 23.2942 157.477 23.2942C157.893 23.2942 158.33 23.345 158.797 23.3957C159.234 23.4465 159.68 23.5785 160.117 23.7308C160.554 23.9136 160.97 24.1167 161.386 24.3807C161.772 24.6447 162.138 24.9798 162.473 25.3657C162.788 25.7515 163.041 26.2186 163.255 26.7365C163.458 27.2544 163.59 27.8738 163.641 28.5744H159.904C159.823 28.2089 159.751 27.8738 159.619 27.6199L159.599 27.6301Z" fill="white"/>
<path d="M176.109 23.7106V26.6147H171.935V37.5103H168.361V26.6147H164.188V23.7106H176.119H176.109Z" fill="white"/>
<path d="M186.061 28.6963V23.7207H189.635V37.5205H186.061V31.6106H180.801V37.5205H177.227V23.7207H180.801V28.6963H186.061Z" fill="white"/>
<path d="M195.664 32.2198L200.701 23.7104H204.458V37.5102H200.883V29.1836H200.833L195.959 37.5102H192.039V23.7104H195.613V32.2198H195.664Z" fill="white"/>
<path d="M215.651 23.7106H220.423L214.717 29.4376L220.657 37.5002H215.986L211.944 31.6614L210.492 33.144V37.5002H206.918V23.7004H210.492V28.9401L215.651 23.7004V23.7106Z" fill="white"/>
</g>
<defs>
<clipPath id="clip0_16037_503">
<rect width="221" height="50" fill="white"/>
</clipPath>
</defs>
</svg>
