<svg width="385" height="48" viewBox="0 0 385 48" fill="none" xmlns="http://www.w3.org/2000/svg">
<g clip-path="url(#clip0_4492_2029)">
<rect x="0.5" width="384" height="48" rx="4" fill="white"/>
<path d="M18.152 29V19.2H22.226C23.262 19.2 24.074 19.4147 24.662 19.844C25.2593 20.264 25.558 20.8847 25.558 21.706C25.558 22.518 25.2733 23.134 24.704 23.554C24.1347 23.9647 23.388 24.17 22.464 24.17L22.702 23.82C23.794 23.82 24.6247 24.0347 25.194 24.464C25.7633 24.8933 26.048 25.5233 26.048 26.354C26.048 27.194 25.7493 27.8473 25.152 28.314C24.564 28.7713 23.6773 29 22.492 29H18.152ZM19.174 28.174H22.492C23.3227 28.174 23.9527 28.02 24.382 27.712C24.8113 27.404 25.026 26.928 25.026 26.284C25.026 25.6493 24.8113 25.1827 24.382 24.884C23.9527 24.5853 23.3227 24.436 22.492 24.436H19.174V28.174ZM19.174 23.638H22.17C22.926 23.638 23.5047 23.4887 23.906 23.19C24.3167 22.882 24.522 22.4293 24.522 21.832C24.522 21.2347 24.3167 20.7867 23.906 20.488C23.5047 20.18 22.926 20.026 22.17 20.026H19.174V23.638ZM32.9643 29V27.376L32.9223 27.11V24.394C32.9223 23.7687 32.745 23.288 32.3903 22.952C32.045 22.616 31.527 22.448 30.8363 22.448C30.3603 22.448 29.9077 22.5273 29.4783 22.686C29.049 22.8447 28.685 23.0547 28.3863 23.316L27.9383 22.574C28.3117 22.2567 28.7597 22.014 29.2823 21.846C29.805 21.6687 30.3557 21.58 30.9343 21.58C31.8863 21.58 32.619 21.818 33.1323 22.294C33.655 22.7607 33.9163 23.4747 33.9163 24.436V29H32.9643ZM30.4303 29.07C29.8797 29.07 29.399 28.9813 28.9883 28.804C28.587 28.6173 28.279 28.3653 28.0643 28.048C27.8497 27.7213 27.7423 27.348 27.7423 26.928C27.7423 26.5453 27.831 26.2 28.0083 25.892C28.195 25.5747 28.4937 25.3227 28.9043 25.136C29.3243 24.94 29.8843 24.842 30.5843 24.842H33.1183V25.584H30.6123C29.903 25.584 29.4083 25.71 29.1283 25.962C28.8577 26.214 28.7223 26.5267 28.7223 26.9C28.7223 27.32 28.8857 27.656 29.2123 27.908C29.539 28.16 29.9963 28.286 30.5843 28.286C31.1443 28.286 31.625 28.16 32.0263 27.908C32.437 27.6467 32.7357 27.2733 32.9223 26.788L33.1463 27.474C32.9597 27.9593 32.633 28.3467 32.1663 28.636C31.709 28.9253 31.1303 29.07 30.4303 29.07ZM41.3924 28.132L41.1684 28.398V21.65H42.1624V28.398L41.8964 28.132H45.9984L45.7324 28.398V21.65H46.7264V29H36.5624V21.65H37.5564V28.398L37.3044 28.132H41.3924ZM56.3088 29.07C55.5434 29.07 54.8714 28.9113 54.2928 28.594C53.7141 28.2673 53.2614 27.824 52.9348 27.264C52.6081 26.6947 52.4448 26.046 52.4448 25.318C52.4448 24.59 52.5988 23.946 52.9068 23.386C53.2241 22.826 53.6534 22.3873 54.1948 22.07C54.7454 21.7433 55.3614 21.58 56.0428 21.58C56.7334 21.58 57.3448 21.7387 57.8768 22.056C58.4181 22.364 58.8428 22.8027 59.1508 23.372C59.4588 23.932 59.6128 24.5807 59.6128 25.318C59.6128 25.3647 59.6081 25.416 59.5988 25.472C59.5988 25.5187 59.5988 25.57 59.5988 25.626H53.2008V24.884H59.0668L58.6748 25.178C58.6748 24.646 58.5581 24.1747 58.3248 23.764C58.1008 23.344 57.7928 23.0173 57.4008 22.784C57.0088 22.5507 56.5561 22.434 56.0428 22.434C55.5388 22.434 55.0861 22.5507 54.6848 22.784C54.2834 23.0173 53.9708 23.344 53.7468 23.764C53.5228 24.184 53.4108 24.6647 53.4108 25.206V25.36C53.4108 25.92 53.5321 26.4147 53.7748 26.844C54.0268 27.264 54.3721 27.5953 54.8108 27.838C55.2588 28.0713 55.7674 28.188 56.3368 28.188C56.7848 28.188 57.2001 28.1087 57.5828 27.95C57.9748 27.7913 58.3108 27.5487 58.5908 27.222L59.1508 27.866C58.8241 28.258 58.4134 28.5567 57.9188 28.762C57.4334 28.9673 56.8968 29.07 56.3088 29.07ZM61.2267 25.64V24.772H64.8947V25.64H61.2267ZM76.3024 21.58C76.8998 21.58 77.4178 21.6967 77.8564 21.93C78.3044 22.154 78.6498 22.4993 78.8924 22.966C79.1444 23.4327 79.2704 24.0207 79.2704 24.73V29H78.2764V24.828C78.2764 24.0533 78.0898 23.47 77.7164 23.078C77.3524 22.6767 76.8344 22.476 76.1624 22.476C75.6584 22.476 75.2198 22.5833 74.8464 22.798C74.4824 23.0033 74.1978 23.3067 73.9924 23.708C73.7964 24.1 73.6984 24.576 73.6984 25.136V29H72.7044V24.828C72.7044 24.0533 72.5178 23.47 72.1444 23.078C71.7711 22.6767 71.2484 22.476 70.5764 22.476C70.0818 22.476 69.6478 22.5833 69.2744 22.798C68.9011 23.0033 68.6118 23.3067 68.4064 23.708C68.2104 24.1 68.1124 24.576 68.1124 25.136V29H67.1184V21.65H68.0704V23.638L67.9164 23.288C68.1404 22.756 68.4998 22.3407 68.9944 22.042C69.4984 21.734 70.0911 21.58 70.7724 21.58C71.4911 21.58 72.1024 21.762 72.6064 22.126C73.1104 22.4807 73.4371 23.0173 73.5864 23.736L73.1944 23.582C73.4091 22.9847 73.7871 22.504 74.3284 22.14C74.8791 21.7667 75.5371 21.58 76.3024 21.58ZM86.5721 29V27.376L86.5301 27.11V24.394C86.5301 23.7687 86.3527 23.288 85.9981 22.952C85.6527 22.616 85.1347 22.448 84.4441 22.448C83.9681 22.448 83.5154 22.5273 83.0861 22.686C82.6567 22.8447 82.2927 23.0547 81.9941 23.316L81.5461 22.574C81.9194 22.2567 82.3674 22.014 82.8901 21.846C83.4127 21.6687 83.9634 21.58 84.5421 21.58C85.4941 21.58 86.2267 21.818 86.7401 22.294C87.2627 22.7607 87.5241 23.4747 87.5241 24.436V29H86.5721ZM84.0381 29.07C83.4874 29.07 83.0067 28.9813 82.5961 28.804C82.1947 28.6173 81.8867 28.3653 81.6721 28.048C81.4574 27.7213 81.3501 27.348 81.3501 26.928C81.3501 26.5453 81.4387 26.2 81.6161 25.892C81.8027 25.5747 82.1014 25.3227 82.5121 25.136C82.9321 24.94 83.4921 24.842 84.1921 24.842H86.7261V25.584H84.2201C83.5107 25.584 83.0161 25.71 82.7361 25.962C82.4654 26.214 82.3301 26.5267 82.3301 26.9C82.3301 27.32 82.4934 27.656 82.8201 27.908C83.1467 28.16 83.6041 28.286 84.1921 28.286C84.7521 28.286 85.2327 28.16 85.6341 27.908C86.0447 27.6467 86.3434 27.2733 86.5301 26.788L86.7541 27.474C86.5674 27.9593 86.2407 28.3467 85.7741 28.636C85.3167 28.9253 84.7381 29.07 84.0381 29.07ZM90.2239 29V21.65H91.2179V29H90.2239ZM90.7279 20.026C90.5226 20.026 90.3499 19.956 90.2099 19.816C90.0699 19.676 89.9999 19.508 89.9999 19.312C89.9999 19.116 90.0699 18.9527 90.2099 18.822C90.3499 18.682 90.5226 18.612 90.7279 18.612C90.9332 18.612 91.1059 18.6773 91.2459 18.808C91.3859 18.9387 91.4559 19.102 91.4559 19.298C91.4559 19.5033 91.3859 19.676 91.2459 19.816C91.1152 19.956 90.9426 20.026 90.7279 20.026ZM93.9837 29V18.612H94.9777V29H93.9837Z" fill="#9D9D9D"/>
<rect x="320.5" width="64" height="48" rx="4" fill="#16C8BB"/>
<path d="M343.5 25.0001H349.5V23.0001H343.5V13.8461C343.5 13.7592 343.523 13.6738 343.566 13.5984C343.609 13.5229 343.671 13.46 343.746 13.4158C343.82 13.3716 343.905 13.3476 343.992 13.3463C344.079 13.3449 344.165 13.3662 344.241 13.4081L362.703 23.5621C362.781 23.6053 362.847 23.6687 362.892 23.7457C362.938 23.8228 362.962 23.9106 362.962 24.0001C362.962 24.0896 362.938 24.1774 362.892 24.2545C362.847 24.3315 362.781 24.3949 362.703 24.4381L344.241 34.5921C344.165 34.634 344.079 34.6553 343.992 34.654C343.905 34.6526 343.82 34.6287 343.746 34.5844C343.671 34.5402 343.609 34.4773 343.566 34.4018C343.523 34.3264 343.5 34.241 343.5 34.1541V25.0001Z" fill="white"/>
</g>
<rect x="1" y="0.5" width="383" height="47" rx="3.5" stroke="#9D9D9D" stroke-opacity="0.2"/>
<defs>
<clipPath id="clip0_4492_2029">
<rect x="0.5" width="384" height="48" rx="4" fill="white"/>
</clipPath>
</defs>
</svg>
