<svg width="288" height="48" viewBox="0 0 288 48" fill="none" xmlns="http://www.w3.org/2000/svg">
<g clip-path="url(#clip0_4492_1771)">
<rect width="288" height="48" rx="4" fill="white"/>
<path d="M17.652 29V19.2H21.726C22.762 19.2 23.574 19.4147 24.162 19.844C24.7593 20.264 25.058 20.8847 25.058 21.706C25.058 22.518 24.7733 23.134 24.204 23.554C23.6347 23.9647 22.888 24.17 21.964 24.17L22.202 23.82C23.294 23.82 24.1247 24.0347 24.694 24.464C25.2633 24.8933 25.548 25.5233 25.548 26.354C25.548 27.194 25.2493 27.8473 24.652 28.314C24.064 28.7713 23.1773 29 21.992 29H17.652ZM18.674 28.174H21.992C22.8227 28.174 23.4527 28.02 23.882 27.712C24.3113 27.404 24.526 26.928 24.526 26.284C24.526 25.6493 24.3113 25.1827 23.882 24.884C23.4527 24.5853 22.8227 24.436 21.992 24.436H18.674V28.174ZM18.674 23.638H21.67C22.426 23.638 23.0047 23.4887 23.406 23.19C23.8167 22.882 24.022 22.4293 24.022 21.832C24.022 21.2347 23.8167 20.7867 23.406 20.488C23.0047 20.18 22.426 20.026 21.67 20.026H18.674V23.638ZM32.4643 29V27.376L32.4223 27.11V24.394C32.4223 23.7687 32.245 23.288 31.8903 22.952C31.545 22.616 31.027 22.448 30.3363 22.448C29.8603 22.448 29.4077 22.5273 28.9783 22.686C28.549 22.8447 28.185 23.0547 27.8863 23.316L27.4383 22.574C27.8117 22.2567 28.2597 22.014 28.7823 21.846C29.305 21.6687 29.8557 21.58 30.4343 21.58C31.3863 21.58 32.119 21.818 32.6323 22.294C33.155 22.7607 33.4163 23.4747 33.4163 24.436V29H32.4643ZM29.9303 29.07C29.3797 29.07 28.899 28.9813 28.4883 28.804C28.087 28.6173 27.779 28.3653 27.5643 28.048C27.3497 27.7213 27.2423 27.348 27.2423 26.928C27.2423 26.5453 27.331 26.2 27.5083 25.892C27.695 25.5747 27.9937 25.3227 28.4043 25.136C28.8243 24.94 29.3843 24.842 30.0843 24.842H32.6183V25.584H30.1123C29.403 25.584 28.9083 25.71 28.6283 25.962C28.3577 26.214 28.2223 26.5267 28.2223 26.9C28.2223 27.32 28.3857 27.656 28.7123 27.908C29.039 28.16 29.4963 28.286 30.0843 28.286C30.6443 28.286 31.125 28.16 31.5263 27.908C31.937 27.6467 32.2357 27.2733 32.4223 26.788L32.6463 27.474C32.4597 27.9593 32.133 28.3467 31.6663 28.636C31.209 28.9253 30.6303 29.07 29.9303 29.07ZM40.8924 28.132L40.6684 28.398V21.65H41.6624V28.398L41.3964 28.132H45.4984L45.2324 28.398V21.65H46.2264V29H36.0624V21.65H37.0564V28.398L36.8044 28.132H40.8924ZM55.8088 29.07C55.0434 29.07 54.3714 28.9113 53.7928 28.594C53.2141 28.2673 52.7614 27.824 52.4348 27.264C52.1081 26.6947 51.9448 26.046 51.9448 25.318C51.9448 24.59 52.0988 23.946 52.4068 23.386C52.7241 22.826 53.1534 22.3873 53.6948 22.07C54.2454 21.7433 54.8614 21.58 55.5428 21.58C56.2334 21.58 56.8448 21.7387 57.3768 22.056C57.9181 22.364 58.3428 22.8027 58.6508 23.372C58.9588 23.932 59.1128 24.5807 59.1128 25.318C59.1128 25.3647 59.1081 25.416 59.0988 25.472C59.0988 25.5187 59.0988 25.57 59.0988 25.626H52.7008V24.884H58.5668L58.1748 25.178C58.1748 24.646 58.0581 24.1747 57.8248 23.764C57.6008 23.344 57.2928 23.0173 56.9008 22.784C56.5088 22.5507 56.0561 22.434 55.5428 22.434C55.0388 22.434 54.5861 22.5507 54.1848 22.784C53.7834 23.0173 53.4708 23.344 53.2468 23.764C53.0228 24.184 52.9108 24.6647 52.9108 25.206V25.36C52.9108 25.92 53.0321 26.4147 53.2748 26.844C53.5268 27.264 53.8721 27.5953 54.3108 27.838C54.7588 28.0713 55.2674 28.188 55.8368 28.188C56.2848 28.188 56.7001 28.1087 57.0828 27.95C57.4748 27.7913 57.8108 27.5487 58.0908 27.222L58.6508 27.866C58.3241 28.258 57.9134 28.5567 57.4188 28.762C56.9334 28.9673 56.3968 29.07 55.8088 29.07ZM60.7267 25.64V24.772H64.3947V25.64H60.7267ZM75.8024 21.58C76.3998 21.58 76.9178 21.6967 77.3564 21.93C77.8044 22.154 78.1498 22.4993 78.3924 22.966C78.6444 23.4327 78.7704 24.0207 78.7704 24.73V29H77.7764V24.828C77.7764 24.0533 77.5898 23.47 77.2164 23.078C76.8524 22.6767 76.3344 22.476 75.6624 22.476C75.1584 22.476 74.7198 22.5833 74.3464 22.798C73.9824 23.0033 73.6978 23.3067 73.4924 23.708C73.2964 24.1 73.1984 24.576 73.1984 25.136V29H72.2044V24.828C72.2044 24.0533 72.0178 23.47 71.6444 23.078C71.2711 22.6767 70.7484 22.476 70.0764 22.476C69.5818 22.476 69.1478 22.5833 68.7744 22.798C68.4011 23.0033 68.1118 23.3067 67.9064 23.708C67.7104 24.1 67.6124 24.576 67.6124 25.136V29H66.6184V21.65H67.5704V23.638L67.4164 23.288C67.6404 22.756 67.9998 22.3407 68.4944 22.042C68.9984 21.734 69.5911 21.58 70.2724 21.58C70.9911 21.58 71.6024 21.762 72.1064 22.126C72.6104 22.4807 72.9371 23.0173 73.0864 23.736L72.6944 23.582C72.9091 22.9847 73.2871 22.504 73.8284 22.14C74.3791 21.7667 75.0371 21.58 75.8024 21.58ZM86.0721 29V27.376L86.0301 27.11V24.394C86.0301 23.7687 85.8527 23.288 85.4981 22.952C85.1527 22.616 84.6347 22.448 83.9441 22.448C83.4681 22.448 83.0154 22.5273 82.5861 22.686C82.1567 22.8447 81.7927 23.0547 81.4941 23.316L81.0461 22.574C81.4194 22.2567 81.8674 22.014 82.3901 21.846C82.9127 21.6687 83.4634 21.58 84.0421 21.58C84.9941 21.58 85.7267 21.818 86.2401 22.294C86.7627 22.7607 87.0241 23.4747 87.0241 24.436V29H86.0721ZM83.5381 29.07C82.9874 29.07 82.5067 28.9813 82.0961 28.804C81.6947 28.6173 81.3867 28.3653 81.1721 28.048C80.9574 27.7213 80.8501 27.348 80.8501 26.928C80.8501 26.5453 80.9387 26.2 81.1161 25.892C81.3027 25.5747 81.6014 25.3227 82.0121 25.136C82.4321 24.94 82.9921 24.842 83.6921 24.842H86.2261V25.584H83.7201C83.0107 25.584 82.5161 25.71 82.2361 25.962C81.9654 26.214 81.8301 26.5267 81.8301 26.9C81.8301 27.32 81.9934 27.656 82.3201 27.908C82.6467 28.16 83.1041 28.286 83.6921 28.286C84.2521 28.286 84.7327 28.16 85.1341 27.908C85.5447 27.6467 85.8434 27.2733 86.0301 26.788L86.2541 27.474C86.0674 27.9593 85.7407 28.3467 85.2741 28.636C84.8167 28.9253 84.2381 29.07 83.5381 29.07ZM89.7239 29V21.65H90.7179V29H89.7239ZM90.2279 20.026C90.0226 20.026 89.8499 19.956 89.7099 19.816C89.5699 19.676 89.4999 19.508 89.4999 19.312C89.4999 19.116 89.5699 18.9527 89.7099 18.822C89.8499 18.682 90.0226 18.612 90.2279 18.612C90.4332 18.612 90.6059 18.6773 90.7459 18.808C90.8859 18.9387 90.9559 19.102 90.9559 19.298C90.9559 19.5033 90.8859 19.676 90.7459 19.816C90.6152 19.956 90.4426 20.026 90.2279 20.026ZM93.4837 29V18.612H94.4777V29H93.4837Z" fill="#9D9D9D"/>
</g>
<rect x="0.5" y="0.5" width="287" height="47" rx="3.5" stroke="#9D9D9D" stroke-opacity="0.2"/>
<defs>
<clipPath id="clip0_4492_1771">
<rect width="288" height="48" rx="4" fill="white"/>
</clipPath>
</defs>
</svg>
